HIERARCHY
ROOT pelvis
{
  OFFSET 0 100 0
  CHANNELS 6 Xposition Yposition Zposition Zrotation Xrotation Yrotation
  JOINT pelvis_right_femur
  {
    OFFSET -10.78128 -3.44521 -0.5502486
    CHANNELS 3 Zrotation Xrotation Yrotation
    JOINT right_femur_tibia
    {
      OFFSET -0.8047443 -44.0398 -0.1307829
      CHANNELS 3 Zrotation Xrotation Yrotation
      JOINT right_tibia_foot
      {
        OFFSET 3.006224 -47.83518 -5
        CHANNELS 3 Zrotation Xrotation Yrotation
        End Site
        {
          OFFSET 0 -5 15
        }
      }
    }
  }
  JOINT pelvis_left_femur
  {
    OFFSET 10.78128 -3.44521 -0.5502486
    CHANNELS 3 Zrotation Xrotation Yrotation
    JOINT left_femur_tibia
    {
      OFFSET 0.8047443 -44.0398 -0.1307829
      CHANNELS 3 Zrotation Xrotation Yrotation
      JOINT left_tibia_foot
      {
        OFFSET -4.370144 -48.10324 -4.275266
        CHANNELS 3 Zrotation Xrotation Yrotation
        End Site
        {
          OFFSET 0 -5 15
        }
      }
    }
  }
  JOINT pelvis_spine1
  {
    OFFSET 0 6.468898 -3.129235
    CHANNELS 3 Zrotation Xrotation Yrotation
    JOINT spine1
    {
      OFFSET 0 23.15396 4.99043
      CHANNELS 3 Zrotation Xrotation Yrotation
      JOINT spine2
      {
        OFFSET 0 20.79997 -5.064912
        CHANNELS 3 Zrotation Xrotation Yrotation
        JOINT neck
        {
          OFFSET 0 14.38658 9.616178
          CHANNELS 3 Zrotation Xrotation Yrotation
          End Site
          {
            OFFSET 0 20 0
          }
        }
      }
      JOINT right_manubrium
      {
        OFFSET -5.722621 16.35077 3.967754
        CHANNELS 3 Zrotation Xrotation Yrotation
        JOINT right_clavicle
        {
          OFFSET -13.16364 1.694482 -4.693211
          CHANNELS 3 Zrotation Xrotation Yrotation
          JOINT right_humerus
          {
            OFFSET -28.5034 -0.3100689 -2.792744
            CHANNELS 3 Zrotation Xrotation Yrotation
            JOINT right_radius
            {
              OFFSET -25.15693 0.02248979 -1.271978
              CHANNELS 3 Zrotation Xrotation Yrotation
              End Site
              {
                OFFSET -15 0 0
              }
            }
          }
        }
      }
      JOINT left_manubrium
      {
        OFFSET 5.722621 16.35077 3.967754
        CHANNELS 3 Zrotation Xrotation Yrotation
        JOINT left_clavicle
        {
          OFFSET 13.16364 1.694482 -4.693211
          CHANNELS 3 Zrotation Xrotation Yrotation
          JOINT left_humerus
          {
            OFFSET 29.39168 -1.063119 -2.237045
            CHANNELS 3 Zrotation Xrotation Yrotation
            JOINT left_radius
            {
              OFFSET 24.59957 -0.9528479 0.9047498
              CHANNELS 3 Zrotation Xrotation Yrotation
              End Site
              {
                OFFSET 15 -0 -0
              }
            }
          }
        }
      }
    }
  }
}
MOTION
Frames: 7
Frame Time: 0.0416666666667
0 103.5113 0 0.548519 -0.6052539 -0.1556075 4.645927 -18.61542 10.88708 -0 39.43027 -0 -5.630499 -16.8485 -3.828484 -7.04138 9.290284 -23.74525 -0 5.206724 -0 10.53715 -16.50183 29.13544 -3.20469 -3.31736 5.135043 2.035322 9.661785 -7.457181 1.730043 22.0122 6.689968 3.252455 -24.57488 9.683999 6.753293 -20.23893 11.49325 85.21131 36.72344 -18.03893 -0 0 17.20349 -6.176407 8.538035 3.753536 6.416334 -19.22474 -1.286346 -94.61726 26.46613 22.64367 0 0 -14.89654 9.622992 17.34895 3.849072
0.290649 103.3437 1.186372 0.523563 -0.4971261 -0.3060981 4.731973 -18.78809 10.93777 -0 39.19304 -0 -5.558347 -16.67551 -3.822316 -7.045377 9.303146 -23.70833 -0 5.308632 -0 10.3854 -16.67989 29.03692 -3.186643 -3.315778 5.171545 2.043106 9.635899 -7.4629 1.748265 21.94648 6.698872 3.264435 -24.64442 9.708269 6.728721 -20.24009 11.47555 85.23179 36.66761 -18.128 -0 0 17.25174 -6.127841 8.564874 3.718157 6.443349 -19.2462 -1.236688 -94.71603 26.60639 22.79293 0 0 -15.05547 9.415497 17.3338 4.140695
0.5833152 103.0433 2.940812 0.2883644 0.6006802 -0.2598807 5.178262 -22.31905 9.774705 -0 34.4976 -0 -5.574394 -14.34212 -3.238037 -6.886555 10.44571 -22.48798 -0 5.123364 -0 8.786705 -18.78609 26.90884 -3.140334 -2.951328 5.03451 2.255589 9.285 -7.646337 1.670923 21.47843 6.964331 3.49878 -25.08177 9.729839 6.34484 -19.70461 11.25259 85.72385 36.19653 -19.19347 -0 0 16.45945 -6.23437 8.391467 3.682021 6.932543 -20.10708 -1.049304 -93.90077 26.85909 21.78404 0 0 -17.42026 9.131679 16.7235 4.445216
0.8658351 102.5964 5.174754 0.04085428 1.445419 -0.03665128 5.530049 -25.24259 8.790983 -0 30.65127 -0 -5.735468 -12.41079 -2.818752 -6.69913 11.50396 -21.44092 -0 5.162798 -0 7.172406 -20.45959 24.97291 -3.035238 -2.60836 4.837672 2.410166 8.962145 -7.79371 1.619049 21.14397 7.173328 3.675399 -25.39045 9.751391 5.986129 -19.18882 11.03116 86.19968 35.76797 -20.07892 -0 0 15.66245 -6.343739 8.257361 3.660348 7.31513 -20.79486 -0.9114317 -93.18347 27.20763 20.81717 0 0 -19.36801 8.791223 16.27362 4.826707
1.133299 102.0189 7.909467 -0.2602372 2.217882 0.3473706 5.908188 -28.00923 7.869074 -0 26.95058 -0 -5.969614 -10.48095 -2.453207 -6.465662 12.59311 -20.36141 -0 5.597924 -0 5.416968 -21.87431 22.96836 -2.861214 -2.264672 4.58143 2.555116 8.651434 -7.935164 1.579765 20.83313 7.364577 3.832886 -25.65123 9.774704 5.618723 -18.62712 10.80836 86.69129 35.32552 -20.92046 -0 0 14.78355 -6.514082 8.183838 3.655943 7.664292 -21.41795 -0.788285 -92.42467 27.46901 19.75194 0 0 -21.17407 8.501157 15.81689 5.12072
1.381627 101.3278 11.15126 -0.6161676 2.856197 0.869135 6.302034 -30.48406 7.020091 -0 23.54299 -0 -6.300541 -8.653725 -2.163317 -6.178615 13.68693 -19.27315 -0 6.500554 -0 3.541273 -22.93928 20.93586 -2.606684 -1.920493 4.255442 2.678686 8.358375 -8.063415 1.552924 20.57884 7.527284 3.957555 -25.83383 9.793648 5.242366 -18.0223 10.58388 87.20273 34.86827 -21.68541 -0 0 13.81501 -6.748751 8.167154 3.67579 7.952757 -21.9488 -0.7001833 -91.6373 27.66405 18.58914 0 0 -22.75989 8.249013 15.38051 5.342304
1.606469 100.5519 14.91233 -1.026552 3.308151 1.496249 6.713879 -32.56708 6.229908 -0 20.47108 -0 -6.742432 -6.977122 -1.960096 -5.827429 14.77257 -18.1563 -0 8.03522 -0 1.565895 -23.55776 18.88986 -2.257057 -1.574102 3.847286 2.776745 8.091019 -8.1744 1.536435 20.40357 7.65125 4.035972 -25.91213 9.798913 4.843396 -17.36421 10.35824 87.74971 34.36915 -22.35655 -0 0 12.72343 -7.07265 8.204179 3.732127 8.159182 -22.37328 -0.6677727 -90.79683 27.75223 17.28304 0 0 -24.07385 8.064066 14.95722 5.441056
